<svg id="Capa_1" enable-background="new 0 0 512 512" height="512" viewBox="0 0 512 512" width="512" xmlns="http://www.w3.org/2000/svg"><g><g><g><g><g><g><path d="m72.567 434.573c-44.906-46.121-72.567-109.116-72.567-178.573 0-141.385 114.615-256 256-256s256 114.615 256 256c0 69.457-27.661 132.452-72.567 178.573z" fill="#a3d4ff"/></g></g></g></g></g><path d="m332.619 93.858-226.8 251.418 88.532 89.297h245.081c41.105-42.216 67.76-98.571 71.979-161.077z" fill="#65b1fc"/><g><path d="m210.763 348.18c-3.269 3.252-7.303 5.786-11.891 7.289l-58.597 19.196c-22.038 7.219-41.108 21.451-54.299 40.523l-13.408 19.385c46.504 47.762 111.504 77.427 183.432 77.427.57 0 1.136-.018 1.705-.022v-163.798z" fill="#fff"/></g><g><path d="m439.433 434.573-13.408-19.385c-13.192-19.072-32.262-33.304-54.299-40.523l-58.597-19.196c-4.588-1.503-8.622-4.038-11.891-7.289h-45.116v163.819c71.879-.034 136.832-29.69 183.311-77.426z" fill="#e9edf5"/></g><g><path d="m337.491 363.999c-.269-.267-.534-.538-.797-.81l-23.566-7.72c-4.588-1.503-8.622-4.038-11.891-7.289h-90.474c-3.269 3.252-7.303 5.786-11.891 7.289l-23.566 7.72c-.263.273-.529.543-.797.81 42.283 51.16 120.699 51.16 162.982 0z" fill="#fe6a16"/></g><g><path d="m336.694 363.189-23.566-7.72c-4.588-1.503-8.622-4.038-11.891-7.289h-45.116v54.188c30.135-.034 60.257-12.822 81.371-38.368-.269-.268-.535-.539-.798-.811z" fill="#f24500"/></g><g><path d="m292.317 326.752v-39.35h-72.634v39.35c0 8.237-3.342 15.88-8.92 21.427 23.472 28.399 67.002 28.399 90.474 0-5.578-5.547-8.92-13.19-8.92-21.427z" fill="#ffcdbe"/></g><g><path d="m301.237 348.18c-5.577-5.547-8.92-13.191-8.92-21.427v-39.35h-36.197v82.073c16.711-.034 33.409-7.131 45.117-21.296z" fill="#ffbeaa"/></g><g><path d="m113.193 345.276h-7.374v-147.564c0-54.905 44.509-99.414 99.414-99.414h7.374v147.564c0 54.905-44.509 99.414-99.414 99.414z" fill="#555a66"/></g><g><g><circle cx="167.059" cy="223.025" fill="#ffcdbe" r="32.975"/></g><g><circle cx="344.941" cy="223.025" fill="#ffbeaa" r="32.975"/></g></g><g><path d="m256 332.337c-51.82 0-93.828-42.008-93.828-93.828v-57.966c0-51.82 42.008-93.828 93.828-93.828 51.82 0 93.828 42.008 93.828 93.828v57.966c0 51.819-42.008 93.828-93.828 93.828z" fill="#ffdecf"/></g><g><path d="m256.121 86.717v245.618c51.764-.065 93.707-42.047 93.707-93.826v-57.966c0-51.779-41.943-93.761-93.707-93.826z" fill="#ffcdbe"/></g><g><path d="m359.61 184.209c0-63.381-46.388-114.761-103.61-114.761-57.222 0-103.61 51.38-103.61 114.761v8.767h207.22z" fill="#636978"/></g><g><path d="m359.61 203.529h-207.203v-39.927c0-57.218 46.384-103.602 103.602-103.602 57.217 0 103.602 46.384 103.602 103.602v39.927z" fill="#fe6a16"/></g><g><path d="m359.61 163.602c0-57.18-46.324-103.54-103.49-103.6v143.527h103.49z" fill="#f24500"/></g><g><path d="m344.808 231.262c-55.859-27.083-121.757-27.083-177.617 0-6.847 3.32-14.802-1.706-14.802-9.315v-34.702c63.579-37.693 143.641-37.693 207.221 0v34.702c0 7.609-7.955 12.635-14.802 9.315z" fill="#f24500"/></g><g><path d="m256.121 158.978v51.974c30.399.018 60.795 6.787 88.688 20.31 6.847 3.319 14.802-1.706 14.802-9.315v-34.702c-31.755-18.825-67.62-28.246-103.49-28.267z" fill="#b72802"/></g></g></svg>