<svg width="26" height="26" viewBox="0 0 26 26" fill="none" xmlns="http://www.w3.org/2000/svg">
<path d="M23.2328 4.87649C23.6033 5.24692 23.6033 5.8475 23.2328 6.21793L6.16962 23.2812C5.7992 23.6516 5.19861 23.6516 4.82818 23.2811L2.69866 21.1516C2.32823 20.7812 2.32823 20.1806 2.69866 19.8102L19.7619 2.74696C20.1323 2.37653 20.7329 2.37654 21.1033 2.74696L23.2328 4.87649Z" fill="#2E384D"/>
<path d="M26 14.8406C26 15.4809 25.5758 16 25.0525 16L0.947515 16C0.424217 16 -1.15699e-07 15.4809 -5.97196e-08 14.8406L2.62097e-07 11.1594C3.18076e-07 10.5191 0.424218 10 0.947518 10L25.0525 10C25.5758 10 26 10.5191 26 11.1594L26 14.8406Z" fill="#2E384D"/>
<path d="M11.1594 26C10.5191 26 10 25.5758 10 25.0525L10 0.947515C10 0.424217 10.5191 -1.8377e-07 11.1594 -2.1176e-07L14.8406 -3.72668e-07C15.4809 -4.00658e-07 16 0.424217 16 0.947517L16 25.0525C16 25.5758 15.4809 26 14.8406 26L11.1594 26Z" fill="#2E384D"/>
<path d="M4.82815 2.74698C5.19858 2.37656 5.79916 2.37656 6.16959 2.74698L23.2328 19.8102C23.6032 20.1806 23.6032 20.7812 23.2328 21.1516L21.1033 23.2812C20.7329 23.6516 20.1323 23.6516 19.7618 23.2812L2.69862 6.21795C2.32819 5.84752 2.3282 5.24694 2.69862 4.87651L4.82815 2.74698Z" fill="#2E384D"/>
<path d="M23 13C23 18.5228 18.5228 23 13 23C7.47715 23 3 18.5228 3 13C3 7.47715 7.47715 3 13 3C18.5228 3 23 7.47715 23 13Z" fill="#2E384D"/>
<path d="M20 13C20 16.866 16.866 20 13 20C9.13401 20 6 16.866 6 13C6 9.13401 9.13401 6 13 6C16.866 6 20 9.13401 20 13Z" fill="#C0C7D5"/>
<path d="M18 13C18 15.7614 15.7614 18 13 18C10.2386 18 8 15.7614 8 13C8 10.2386 10.2386 8 13 8C15.7614 8 18 10.2386 18 13Z" fill="#2E384D"/>
</svg>
