<svg width="25" height="25" viewBox="0 0 25 25" fill="none" xmlns="http://www.w3.org/2000/svg">
<path d="M22.3393 4.68894C22.6954 5.04512 22.6954 5.6226 22.3393 5.97879L5.93233 22.3857C5.57615 22.7419 4.99866 22.7419 4.64248 22.3857L2.59486 20.3381C2.23868 19.9819 2.23868 19.4044 2.59486 19.0483L19.0018 2.64132C19.358 2.28513 19.9355 2.28514 20.2916 2.64132L22.3393 4.68894Z" fill="#2E384D"/>
<path d="M25 14.0338C25 14.5674 24.5921 15 24.0889 15L0.911072 15C0.4079 15 3.7817e-08 14.5674 8.44667e-08 14.0338L3.52647e-07 10.9662C3.99297e-07 10.4326 0.4079 10 0.911074 10L24.0889 10C24.5921 10 25 10.4326 25 10.9662L25 14.0338Z" fill="#2E384D"/>
<path d="M10.9662 25C10.4326 25 10 24.5921 10 24.0889L10 0.911072C10 0.4079 10.4326 -1.89085e-08 10.9662 -4.22334e-08L14.0338 -1.76324e-07C14.5674 -1.99648e-07 15 0.4079 15 0.911073L15 24.0889C15 24.5921 14.5674 25 14.0338 25L10.9662 25Z" fill="#2E384D"/>
<path d="M4.64246 2.64132C4.99864 2.28514 5.57613 2.28514 5.93231 2.64132L22.3392 19.0483C22.6954 19.4044 22.6954 19.9819 22.3392 20.3381L20.2916 22.3857C19.9354 22.7419 19.358 22.7419 19.0018 22.3857L2.59484 5.97879C2.23866 5.62261 2.23866 5.04513 2.59484 4.68894L4.64246 2.64132Z" fill="#2E384D"/>
<path d="M21 13C21 17.9706 16.9706 22 12 22C7.02944 22 3 17.9706 3 13C3 8.02944 7.02944 4 12 4C16.9706 4 21 8.02944 21 13Z" fill="#2E384D"/>
<path d="M18 13C18 16.3137 15.3137 19 12 19C8.68629 19 6 16.3137 6 13C6 9.68629 8.68629 7 12 7C15.3137 7 18 9.68629 18 13Z" fill="#C0C7D5"/>
<path d="M16 13C16 15.2091 14.2091 17 12 17C9.79086 17 8 15.2091 8 13C8 10.7909 9.79086 9 12 9C14.2091 9 16 10.7909 16 13Z" fill="#2E384D"/>
</svg>
