<svg width="480" height="189" viewBox="0 0 480 189" fill="none" xmlns="http://www.w3.org/2000/svg">
<path d="M56.816 153.48C55.856 153.48 55.28 152.808 55.088 151.464C55.6 148.2 56.432 143.784 57.584 138.216C58.8 132.648 59.568 129.16 59.888 127.752C61.616 119.816 62.512 115.592 62.576 115.08C57.136 113.352 54.416 111.784 54.416 110.376C54.416 109.672 54.672 109.128 55.184 108.744C55.696 108.296 56.272 108.072 56.912 108.072C57.744 108.072 59.024 108.424 60.752 109.128C62.48 109.768 63.408 110.152 63.536 110.28L73.136 65.256C70.32 66.088 68.24 67.72 66.896 70.152C66.32 70.92 65.584 71.304 64.688 71.304C63.536 71.304 62.96 70.76 62.96 69.672C62.96 68.84 63.44 67.816 64.4 66.6C65.36 65.32 66.704 64.136 68.432 63.048C70.224 61.896 72.272 61.096 74.576 60.648C75.28 59.368 76.08 58.728 76.976 58.728C77.872 58.728 78.416 59.208 78.608 60.168C83.088 60.168 87.088 61.192 90.608 63.24C94.192 65.288 96.976 68.072 98.96 71.592C100.944 75.112 101.936 79.016 101.936 83.304C101.936 91.112 100.432 97.544 97.424 102.6C94.416 107.656 90.672 111.304 86.192 113.544C81.776 115.784 77.296 116.904 72.752 116.904C70.576 116.904 68.528 116.648 66.608 116.136C66.288 117.928 65.36 122.344 63.824 129.384C61.264 141.928 59.824 149.064 59.504 150.792C59.376 151.56 59.024 152.2 58.448 152.712C57.936 153.224 57.392 153.48 56.816 153.48ZM91.184 104.328C95.664 99.208 97.904 92.968 97.904 85.608C97.904 81.768 97.072 78.248 95.408 75.048C93.744 71.784 91.376 69.224 88.304 67.368C85.232 65.448 81.68 64.488 77.648 64.488L67.568 111.72C69.616 112.168 71.472 112.392 73.136 112.392C76.464 112.392 79.696 111.72 82.832 110.376C86.032 109.032 88.816 107.016 91.184 104.328Z" fill="black"/>
<path d="M136 103C136 138.844 106.505 168 70 168C33.4948 168 4 138.844 4 103C4 67.1556 33.4948 38 70 38C106.505 38 136 67.1556 136 103Z" stroke="black" stroke-width="8"/>
<line x1="10.5492" y1="135.967" x2="19.2094" y2="130.967" stroke="black"/>
<line x1="69.5" y1="46.9947" x2="69.5" y2="36.9947" stroke="black"/>
<line x1="121.75" y1="143.402" x2="113.09" y2="138.402" stroke="black"/>
<line x1="40.567" y1="55.25" x2="35.567" y2="46.5897" stroke="black"/>
<line x1="33.567" y1="158.75" x2="38.567" y2="150.09" stroke="black"/>
<line x1="100.567" y1="164.25" x2="95.567" y2="155.59" stroke="black"/>
<line x1="19.75" y1="76.433" x2="11.0897" y2="71.433" stroke="black"/>
<line x1="15" y1="105.5" x2="5" y2="105.5" stroke="black"/>
<line x1="69.5" y1="172" x2="69.5" y2="162" stroke="black"/>
<line x1="127" y1="104.5" x2="137" y2="104.5" stroke="black"/>
<line x1="104.567" y1="55.75" x2="109.567" y2="47.0897" stroke="black"/>
<line x1="121.75" y1="77.567" x2="130.41" y2="72.567" stroke="black"/>
<path d="M148.504 166.36C147.544 166.36 147 165.72 146.872 164.44C148.792 157.144 150.456 149.848 151.864 142.552L154.744 127.48L157.624 112.408L158.392 108.376C160.952 95.064 162.68 86.168 163.576 81.688V79.576C163.576 78.936 163.864 78.328 164.44 77.752C165.016 77.176 165.688 76.888 166.456 76.888C167.16 76.888 167.704 77.176 168.088 77.752C168.472 78.264 168.664 78.84 168.664 79.48C168.664 80.376 168.504 81.304 168.184 82.264L167.8 83.512C167.672 84.024 167.608 84.376 167.608 84.568L166.264 91.48C170.872 82.712 175.8 78.328 181.048 78.328C183.8 78.328 185.784 79.16 187 80.824C188.28 82.424 188.92 84.856 188.92 88.12C188.92 94.264 188.056 100.376 186.328 106.456C184.6 112.536 182.104 117.656 178.84 121.816C175.512 126.104 171.544 128.248 166.936 128.248C165.144 128.248 163.704 127.864 162.616 127.096C161.592 126.392 160.76 125.144 160.12 123.352L158.968 129.016C157.432 136.056 156.312 141.368 155.608 144.952C154.072 152.76 152.6 159.256 151.192 164.44C150.616 165.72 149.72 166.36 148.504 166.36ZM167.608 123.736C170.936 123.736 174.04 121.624 176.92 117.4C180.504 111.96 182.872 104.824 184.024 95.992C184.344 93.24 184.504 90.872 184.504 88.888C184.504 84.728 183.48 82.648 181.432 82.648C179.384 82.648 177.048 84.12 174.424 87.064C170.84 91.096 167.896 95.96 165.592 101.656C163.288 107.288 162.136 112.184 162.136 116.344C162.136 121.272 163.96 123.736 167.608 123.736ZM203.893 127.864C200.565 127.864 198.069 126.552 196.405 123.928C194.805 121.304 194.005 118.168 194.005 114.52C194.005 108.696 194.965 103.064 196.885 97.624C198.869 92.12 201.557 87.576 204.949 83.992C208.213 80.344 211.893 78.52 215.989 78.52C221.877 78.52 224.821 83 224.821 91.96C224.821 96.44 224.085 101.016 222.613 105.688C221.141 110.36 219.221 114.52 216.853 118.168C214.549 121.816 212.149 124.44 209.653 126.04C207.733 127.256 205.813 127.864 203.893 127.864ZM204.661 123.544C206.645 123.544 208.853 121.816 211.285 118.36C213.781 114.904 215.861 110.616 217.525 105.496C219.253 100.376 220.117 96.024 220.117 92.44C220.117 88.728 219.893 86.424 219.445 85.528C219.061 84.568 218.581 83.896 218.005 83.512C217.429 83.128 216.533 82.936 215.317 82.936C213.973 82.936 212.565 83.448 211.093 84.472C208.149 86.328 205.589 89.528 203.413 94.072C200.021 100.856 198.325 107.448 198.325 113.848C198.325 118.2 199.573 121.208 202.069 122.872C202.965 123.32 203.829 123.544 204.661 123.544ZM233.832 128.344C233.192 128.344 232.648 128.216 232.2 127.96C231.752 127.704 231.528 127.384 231.528 127C232.104 125.208 232.552 123.352 232.872 121.432C233.32 119.064 233.832 117.08 234.408 115.48C236.904 105.624 239.08 94.392 240.936 81.784L241.224 80.152C241.224 79.704 241.672 78.968 242.568 77.944C243.144 77.688 243.624 77.56 244.008 77.56C244.84 77.56 245.416 78.104 245.736 79.192V79.96C245.672 84.184 244.968 89.144 243.624 94.84L241.224 104.92L243.528 99.928C246.856 92.12 250.056 86.488 253.128 83.032C256.008 79.768 259.208 78.136 262.728 78.136C264.584 78.136 266.12 78.904 267.336 80.44C268.616 81.976 269.256 83.8 269.256 85.912V86.68C269.192 86.872 269.16 87.128 269.16 87.448C272.616 83.224 276.232 80.344 280.008 78.808C281.224 78.296 282.408 78.04 283.56 78.04C284.776 78.04 285.896 78.616 286.92 79.768C287.944 80.92 288.456 82.392 288.456 84.184C288.456 87.704 287.752 91.896 286.344 96.76C285.448 99.704 284.744 101.912 284.232 103.384C281.16 112.472 279.464 118.616 279.144 121.816C279.08 122.392 278.984 123.128 278.856 124.024C278.728 124.856 278.632 125.368 278.568 125.56C278.056 127.096 277.192 127.864 275.976 127.864C274.504 127.864 273.768 126.296 273.768 123.16C273.768 121.24 274.12 119.128 274.824 116.824C275.4 115.096 276.008 113.144 276.648 110.968C276.84 110.2 277.448 108.344 278.472 105.4C279.944 101.24 281.096 97.72 281.927 94.84C282.76 91.96 283.336 88.792 283.656 85.336C283.656 84.12 283.496 83.384 283.176 83.128C282.92 82.808 282.344 82.648 281.448 82.648C280.488 82.648 279.144 83.224 277.416 84.376C275.752 85.528 274.088 87.064 272.424 88.984C268.584 93.336 265.64 98.968 263.592 105.88C262.952 108.248 262.408 109.944 261.96 110.968C259.848 117.368 258.536 121.528 258.024 123.448C257.512 125.496 257.096 126.712 256.776 127.096C256.392 127.608 255.816 127.864 255.048 127.864C253.576 127.864 252.776 127.064 252.648 125.464C253.288 120.984 254.184 117.016 255.336 113.56C256.488 110.104 257.928 106.232 259.656 101.944C260.744 99.128 261.672 96.312 262.44 93.496C263.272 90.616 263.688 88.184 263.688 86.2C263.688 84.024 263.016 82.936 261.672 82.936C259.432 82.936 256.872 85.048 253.992 89.272C251.112 93.432 248.456 98.072 246.024 103.192C243.592 108.248 242.024 111.832 241.32 113.944C240.872 115.16 240.52 116.152 240.264 116.92C240.008 117.624 239.816 118.2 239.688 118.648C237.64 125.112 235.688 128.344 233.832 128.344ZM306.081 127.864C302.753 127.864 300.257 126.552 298.593 123.928C296.993 121.304 296.193 118.168 296.193 114.52C296.193 108.696 297.153 103.064 299.073 97.624C301.057 92.12 303.745 87.576 307.137 83.992C310.401 80.344 314.081 78.52 318.177 78.52C324.065 78.52 327.009 83 327.009 91.96C327.009 96.44 326.273 101.016 324.801 105.688C323.329 110.36 321.409 114.52 319.041 118.168C316.737 121.816 314.337 124.44 311.841 126.04C309.921 127.256 308.001 127.864 306.081 127.864ZM306.849 123.544C308.833 123.544 311.041 121.816 313.473 118.36C315.969 114.904 318.049 110.616 319.713 105.496C321.441 100.376 322.305 96.024 322.305 92.44C322.305 88.728 322.081 86.424 321.633 85.528C321.249 84.568 320.769 83.896 320.193 83.512C319.617 83.128 318.721 82.936 317.505 82.936C316.161 82.936 314.753 83.448 313.281 84.472C310.337 86.328 307.777 89.528 305.601 94.072C302.209 100.856 300.513 107.448 300.513 113.848C300.513 118.2 301.761 121.208 304.257 122.872C305.153 123.32 306.017 123.544 306.849 123.544ZM357.235 128.728C356.467 128.728 355.763 127.832 355.123 126.04C354.547 124.184 354.259 122.488 354.259 120.952C354.259 119.672 354.451 118.168 354.835 116.44C353.491 120.408 351.795 123.32 349.747 125.176C347.699 126.968 345.075 127.864 341.875 127.864C338.867 127.864 336.595 126.648 335.059 124.216C333.523 121.72 332.755 118.936 332.755 115.864C332.755 106.328 334.547 98.232 338.131 91.576C339.859 88.568 341.363 86.328 342.643 84.856C343.923 83.32 345.587 81.88 347.635 80.536C349.619 79.192 352.115 78.52 355.123 78.52C358.067 78.52 360.211 79.96 361.555 82.84L363.187 75.64C365.299 66.488 367.059 58.456 368.467 51.544L370.195 42.904L371.251 37.912C371.251 37.144 371.507 36.472 372.019 35.896C372.595 35.256 373.203 34.936 373.843 34.936C375.187 34.936 375.859 35.672 375.859 37.144V37.528C375.859 39.256 374.771 45.08 372.595 55C370.355 65.304 368.915 72.44 368.275 76.408C367.571 80.504 366.323 86.264 364.531 93.688L363.187 98.968C361.715 104.6 360.627 109.048 359.923 112.312C359.283 115.576 358.995 118.36 359.059 120.664C359.059 122.392 359.347 124.184 359.923 126.04C359.859 126.744 359.507 127.352 358.867 127.864C358.291 128.44 357.747 128.728 357.235 128.728ZM342.739 123.16C344.211 123.16 346.291 121.304 348.979 117.592C351.731 113.816 354.131 109.304 356.179 104.056C358.227 98.808 359.251 93.976 359.251 89.56C359.251 87.832 358.739 86.232 357.715 84.76C356.755 83.288 355.475 82.552 353.875 82.552C350.931 82.552 348.179 84.408 345.619 88.12C343.059 91.768 340.979 96.344 339.379 101.848C337.843 107.032 337.075 111.384 337.075 114.904C337.075 117.272 337.523 119.256 338.419 120.856C339.379 122.392 340.819 123.16 342.739 123.16ZM384.831 127.864C381.503 127.864 379.007 126.552 377.343 123.928C375.743 121.304 374.943 118.168 374.943 114.52C374.943 108.696 375.903 103.064 377.823 97.624C379.807 92.12 382.495 87.576 385.887 83.992C389.151 80.344 392.831 78.52 396.927 78.52C402.815 78.52 405.759 83 405.759 91.96C405.759 96.44 405.023 101.016 403.551 105.688C402.079 110.36 400.159 114.52 397.791 118.168C395.487 121.816 393.087 124.44 390.591 126.04C388.671 127.256 386.751 127.864 384.831 127.864ZM385.599 123.544C387.583 123.544 389.791 121.816 392.223 118.36C394.719 114.904 396.799 110.616 398.463 105.496C400.191 100.376 401.055 96.024 401.055 92.44C401.055 88.728 400.831 86.424 400.383 85.528C399.999 84.568 399.519 83.896 398.943 83.512C398.367 83.128 397.471 82.936 396.255 82.936C394.911 82.936 393.503 83.448 392.031 84.472C389.087 86.328 386.527 89.528 384.351 94.072C380.959 100.856 379.263 107.448 379.263 113.848C379.263 118.2 380.511 121.208 383.007 122.872C383.903 123.32 384.767 123.544 385.599 123.544ZM413.809 128.536C412.913 128.536 412.465 127.96 412.465 126.808L414.673 115.384L418.705 95.128C420.497 86.168 421.393 81.688 421.393 81.688C421.649 80.28 422.001 79.256 422.449 78.616C422.897 77.976 423.473 77.656 424.177 77.656C424.817 77.656 425.297 77.816 425.617 78.136C426.001 78.456 426.193 79.032 426.193 79.864C426.193 81.336 425.745 83.576 424.849 86.584C424.401 88.056 424.081 89.304 423.889 90.328C423.633 91.224 423.345 92.248 423.025 93.4C422.705 94.488 422.353 95.768 421.969 97.24C423.697 93.336 425.329 90.232 426.865 87.928C428.401 85.56 430.321 83.32 432.625 81.208C434.801 79.352 436.977 78.424 439.153 78.424C440.753 78.424 442.097 78.776 443.185 79.48C444.273 80.12 444.817 80.888 444.817 81.784C444.817 82.488 444.561 83.064 444.049 83.512C443.537 83.896 442.897 84.088 442.129 84.088C441.553 84.088 441.009 83.96 440.497 83.704C440.113 83.384 439.601 83.224 438.961 83.224C438.129 83.224 436.913 83.8 435.313 84.952C432.305 87.128 429.745 90.008 427.633 93.592C425.585 97.112 423.953 100.696 422.737 104.344C421.585 107.928 420.337 112.28 418.993 117.4L418.129 120.952C417.169 126.008 415.729 128.536 413.809 128.536ZM455.518 127.864C452.19 127.864 449.694 126.552 448.03 123.928C446.43 121.304 445.63 118.168 445.63 114.52C445.63 108.696 446.59 103.064 448.51 97.624C450.494 92.12 453.182 87.576 456.574 83.992C459.838 80.344 463.518 78.52 467.614 78.52C473.502 78.52 476.446 83 476.446 91.96C476.446 96.44 475.71 101.016 474.238 105.688C472.766 110.36 470.846 114.52 468.478 118.168C466.174 121.816 463.774 124.44 461.278 126.04C459.358 127.256 457.438 127.864 455.518 127.864ZM456.286 123.544C458.27 123.544 460.478 121.816 462.91 118.36C465.406 114.904 467.486 110.616 469.15 105.496C470.878 100.376 471.742 96.024 471.742 92.44C471.742 88.728 471.518 86.424 471.07 85.528C470.686 84.568 470.206 83.896 469.63 83.512C469.054 83.128 468.158 82.936 466.942 82.936C465.598 82.936 464.19 83.448 462.718 84.472C459.774 86.328 457.214 89.528 455.038 94.072C451.646 100.856 449.95 107.448 449.95 113.848C449.95 118.2 451.198 121.208 453.694 122.872C454.59 123.32 455.454 123.544 456.286 123.544Z" fill="black"/>
</svg>
